<svg id="Capa_1" data-name="Capa 1" xmlns="http://www.w3.org/2000/svg" viewBox="0 0 83.38 48.7"><title>logo-campusMVP</title><path d="M6.08,1.05H10.7L10.4,3a0.87,0.87,0,0,1-.34.64,1.15,1.15,0,0,1-.66.19H6.72Q5,3.87,4.28,6.79a12.73,12.73,0,0,0-.36,3,2.16,2.16,0,0,0,.53,1.7,1.83,1.83,0,0,0,1.17.3H6.08a9,9,0,0,0,2.52-.22,1.37,1.37,0,0,0,.86-0.85L8.89,13.66a1,1,0,0,1-1.06,1H3.94a2.78,2.78,0,0,1-2.72-1.35,4.9,4.9,0,0,1-.4-2.22A24.36,24.36,0,0,1,1,8.36,13.38,13.38,0,0,1,2.28,3.6,4.18,4.18,0,0,1,6.08,1.05Z" transform="translate(-0.81 -1.05)" fill="#fff" fill-rule="evenodd"/><path d="M14,11.53h2.67l0.75-3.67H15.17a1.48,1.48,0,0,0-1.37,1,4.14,4.14,0,0,0-.38,1.78,1.07,1.07,0,0,0,.17.62A0.51,0.51,0,0,0,14,11.53Zm2.21,2.35,0.43-2-1,2a1.8,1.8,0,0,1-.43.55,0.85,0.85,0,0,1-.55.27H12.25A1.5,1.5,0,0,1,11,14a3.48,3.48,0,0,1-.48-2,13.86,13.86,0,0,1,.62-3.65q0.62-2.18.91-2.28a0.93,0.93,0,0,1,.73-0.55,5.11,5.11,0,0,1,1.37-.17h3.23A1.49,1.49,0,0,0,18,5.29a1.2,1.2,0,0,0,.26-1,0.71,0.71,0,0,0-.7-0.88H14.23a0.81,0.81,0,0,1-.71-0.26,0.81,0.81,0,0,1-.14-0.59l0.19-1.55h5.78a2.05,2.05,0,0,1,1.54.54A1.91,1.91,0,0,1,21.41,3a2.93,2.93,0,0,1-.13.85l-1.62,8.83a4.66,4.66,0,0,0-.15,1,1.18,1.18,0,0,0,.23.82,0.48,0.48,0,0,0,.34.17H16.8a0.56,0.56,0,0,1-.44-0.26A0.66,0.66,0,0,1,16.23,13.88Z" transform="translate(-0.81 -1.05)" fill="#fff" fill-rule="evenodd"/><path d="M23.93,2.23a2.43,2.43,0,0,0-.07-0.61,0.89,0.89,0,0,0-.33-0.49h2.76a0.78,0.78,0,0,1,.55.25A0.68,0.68,0,0,1,27,2l-0.11.9L27.56,1.8a3.13,3.13,0,0,1,.23-0.37,0.92,0.92,0,0,1,.74-0.3h2.2a1.72,1.72,0,0,1,1.34.61,2.2,2.2,0,0,1,.54,1.51L33.45,1.8a1.15,1.15,0,0,1,1-.67H36.4a1.93,1.93,0,0,1,1.49.65,2.38,2.38,0,0,1,.6,1.67,3.76,3.76,0,0,1-.06.67l-1.89,9.51a1.54,1.54,0,0,0,0,.61,0.64,0.64,0,0,0,.45.46H34.09a0.67,0.67,0,0,1-.52-0.26,1,1,0,0,1-.22-0.69l1.79-8.13a4.83,4.83,0,0,0,.15-0.9A0.65,0.65,0,0,0,35,4.16,1.62,1.62,0,0,0,34.11,4a2.23,2.23,0,0,0-1.31.27,1.62,1.62,0,0,0-.5,1l-1.81,8.53a0.84,0.84,0,0,0,.14.64,0.55,0.55,0,0,0,.44.31H28q-0.45,0-.45-0.62V13.8l1.76-8.73a1.73,1.73,0,0,0-.13-0.82A1.32,1.32,0,0,0,28,3.87a2.61,2.61,0,0,0-.86.1,1.13,1.13,0,0,0-.71.92l-1.87,8.86v0.3a0.47,0.47,0,0,0,.23.44l0.38,0.21h-3a0.65,0.65,0,0,1-.52-0.24,1.16,1.16,0,0,1-.2-0.76V13.53Z" transform="translate(-0.81 -1.05)" fill="#fff" fill-rule="evenodd"/><path d="M43.44,4.55l-1.53,7.24h2a1.74,1.74,0,0,0,1.47-.87A14.39,14.39,0,0,0,47,5.72a1.28,1.28,0,0,0-.4-1.16A1.63,1.63,0,0,0,45.39,4a4.77,4.77,0,0,0-1.2.2A1.61,1.61,0,0,0,43.44,4.55ZM43.95,2l-0.4,2,1.13-2.25a1,1,0,0,1,.44-0.51,1.78,1.78,0,0,1,.71-0.11h1.75a2.1,2.1,0,0,1,1.74.79,3.2,3.2,0,0,1,.63,2.06,5.49,5.49,0,0,1,0,.55q-0.34,3.07-.64,4.44a10.75,10.75,0,0,1-1.51,3.92,3.72,3.72,0,0,1-3.17,1.7H41.4l-0.66,2.87a0.63,0.63,0,0,0,.1.51,0.44,0.44,0,0,0,.35.24H38.51A0.72,0.72,0,0,1,38,17.85a1,1,0,0,1-.26-0.67L41,2.35A1.48,1.48,0,0,0,41,2a0.87,0.87,0,0,0-.26-0.65,0.8,0.8,0,0,0-.57-0.25h2.73a1.48,1.48,0,0,1,.8.2A0.62,0.62,0,0,1,43.95,2Z" transform="translate(-0.81 -1.05)" fill="#fff" fill-rule="evenodd"/><path d="M52.84,2a0.7,0.7,0,0,0-.13-0.62,0.58,0.58,0,0,0-.45-0.27h3.27a0.33,0.33,0,0,1,.31.31,1.29,1.29,0,0,1,0,.54l-1.7,8.39q-0.11.4-.15,0.61a2,2,0,0,0,0,.39,0.56,0.56,0,0,0,.31.54,3,3,0,0,0,1.2.16A2.45,2.45,0,0,0,57,11.66a2.34,2.34,0,0,0,.4-1.12l1.62-8.86A0.48,0.48,0,0,0,59,1.19a0.76,0.76,0,0,0-.49-0.14h3.25a0.24,0.24,0,0,1,.15.15,1.16,1.16,0,0,1,.17.7L59.79,13.75a1,1,0,0,0,.1.65,0.53,0.53,0,0,0,.5.3H57.09a0.41,0.41,0,0,1-.32-0.2,0.51,0.51,0,0,1-.09-0.45l0.17-.92-0.45,1.1a1,1,0,0,1-1,.47h-3a1.63,1.63,0,0,1-1.2-.41A1.74,1.74,0,0,1,50.73,13a5.14,5.14,0,0,1,.15-1.2Z" transform="translate(-0.81 -1.05)" fill="#fff" fill-rule="evenodd"/><path d="M67.45,1.05h5L72.17,2.63a0.73,0.73,0,0,1-.85.57H69a2.24,2.24,0,0,0-1.34.3A1.88,1.88,0,0,0,67.13,5q0,0.85,2.28,1.44A2.67,2.67,0,0,1,71.7,9.25a6.88,6.88,0,0,1-1,4A3.11,3.11,0,0,1,68,14.7H62.56a0.42,0.42,0,0,1-.34-0.2A0.89,0.89,0,0,1,62,13.75l0.57-2.35h0.15a0.87,0.87,0,0,0,.17.79,1.37,1.37,0,0,0,1,.26h0.85q0.85,0,1.82-.07a2.1,2.1,0,0,0,1-.2,0.81,0.81,0,0,0,.6-0.61,4.44,4.44,0,0,0,.36-1.21q0.13-.92-2.23-1.61T64,6.61a7.77,7.77,0,0,1,.92-4A2.85,2.85,0,0,1,67.45,1.05Z" transform="translate(-0.81 -1.05)" fill="#fff" fill-rule="evenodd"/><path d="M73.21,17.31a0.18,0.18,0,0,0-.16.07,0.38,0.38,0,0,0,0,.21q2.28,2.89,2.28,4.28a34.89,34.89,0,0,1-.75,3.65,40.2,40.2,0,0,1-1,3.91l0.16,1q-0.52,2.37-.79,4.08a18.85,18.85,0,0,0-.26,2.71,0.64,0.64,0,0,0,.09.38,0.29,0.29,0,0,0,.24.12,2.25,2.25,0,0,0,.7-0.21,8.8,8.8,0,0,0,1.3-.73q0.5-.33,1-0.61l1-.59q0.21-.14.5-0.36t0.61-.53q0.47-.42.74-0.69l0.35-.34a4.44,4.44,0,0,0,1.26-1.76,6.69,6.69,0,0,0,.43-2.51,9.65,9.65,0,0,0-.17-1.76,12.3,12.3,0,0,0-.5-1.83l0-.56A1.26,1.26,0,0,0,80,24.94l-0.21-.34a2.77,2.77,0,0,1-.25-0.38,3,3,0,0,1-.25-0.61A9.23,9.23,0,0,0,78.2,21.8,28.07,28.07,0,0,0,76,19.31l-0.35-.39-0.43-.48L74.37,18Zm-1.58,2.8a4.28,4.28,0,0,0-.36-0.88l-0.71-1.4q-0.44-.78-0.66-1.21a1.74,1.74,0,0,1-.21-0.6,4.53,4.53,0,0,1,1.25-2.17q1.25-1.52,1.83-1.52a2.14,2.14,0,0,1,.62.42H74q0.52,0.33,1.08.61T76.13,14a6.71,6.71,0,0,1,2,1.4,6.38,6.38,0,0,0,1.24,1.19,7.43,7.43,0,0,0,.47.62q0.35,0.43.95,1.09a1.3,1.3,0,0,1,.19.26l0.25,0.4q0.83,1.2,1.41,2.21A10.88,10.88,0,0,1,83.45,23,12.74,12.74,0,0,1,84,25.26a17.23,17.23,0,0,1,.18,2.61,14.32,14.32,0,0,1-.58,4.39,5,5,0,0,1-1.81,2.66,2.63,2.63,0,0,1-.33.27q-0.21.15-.43,0.34l-0.25.31a4.31,4.31,0,0,1-1.1,1,16.74,16.74,0,0,1-2,1.09q-1.65.78-3.47,1.69-0.5.31-.86,0.49a1.34,1.34,0,0,1-.55.19,1.39,1.39,0,0,0-.68.09,7,7,0,0,0-.21,1.89l-0.12,2.27a2.68,2.68,0,0,0,.2.93,5.49,5.49,0,0,0,.63,1.15,9.25,9.25,0,0,1-.4.92,10.79,10.79,0,0,1-.55,1,3.44,3.44,0,0,1-.72,1,1.09,1.09,0,0,1-.7.32,1,1,0,0,1-.94-0.82,7.69,7.69,0,0,1-.3-2.48,8,8,0,0,1,.14-1.31q0.14-.79.41-1.94l-0.1-1.37q-0.25-.14-0.49-0.31t-0.47-.35A1.26,1.26,0,0,1,68,40.75a0.9,0.9,0,0,1-.14-0.47,1.7,1.7,0,0,1,.93-0.84A1.66,1.66,0,0,0,69.74,38a4.7,4.7,0,0,0-.09-0.75,4.68,4.68,0,0,1-.09-0.73q0.17-1.36.39-2.75a7.37,7.37,0,0,0,.1-0.85q0.06-.71.16-2,0.06-.4.17-1t0.25-1.41L70.5,27.6Zm-7.27,4.06q-0.08-.4-0.15-0.71,0.1-.68.21-1.33t0.19-1.33a7.26,7.26,0,0,1,.47-1.62,1.55,1.55,0,0,1,.61-0.78l1.24-.64,0.6-.24a0.32,0.32,0,0,1,.31.24,1.87,1.87,0,0,1,.1.68q0,0.16-.1.94l-0.27,2.19q0,0.33-.07.68T67.41,23a1.45,1.45,0,0,1-.14.55q-0.14.32-.35,0.74a6.86,6.86,0,0,1-.41,2.28Q66,28.36,64.92,31.44,64,34,63.32,35.94t-1.21,3.18q-0.27.66-.62,1.42l-0.71,1.59Q61,42.62,61.11,43a1.6,1.6,0,0,1-.08.47l-0.67,1q-0.41.59-.94,1.32l-0.79.47q-0.29.47-.48,0.82a3.46,3.46,0,0,1-.68.39,1.57,1.57,0,0,1-.59.13A1.15,1.15,0,0,1,56,47a1.93,1.93,0,0,1-.42-1.15,1.78,1.78,0,0,1,.45-1,3.66,3.66,0,0,0,.5-0.78l-0.06-.24-0.19-.31A7.64,7.64,0,0,0,56,42.49a7.36,7.36,0,0,0-.33-0.93,9.37,9.37,0,0,1-.62-1.73q-0.27-1-.5-2.34-0.1-.61-0.15-1a4.66,4.66,0,0,1,0-.48,4,4,0,0,1-.17-0.47L54,34.85l-0.24-2q-0.15-1.18-.3-2.75a2.49,2.49,0,0,0,0-.45q0-.26-0.15-0.64a3.78,3.78,0,0,1-.16-0.61,3.21,3.21,0,0,1,0-.47q0-.68,0-1.34A1.68,1.68,0,0,1,53,26l0.16-.92a3.23,3.23,0,0,1-.32-0.8,4.31,4.31,0,0,1-.13-1.11,1.69,1.69,0,0,1,.06-0.45,3.36,3.36,0,0,1,.14-0.4,7.52,7.52,0,0,1-.16-0.77,5.65,5.65,0,0,1-.06-0.84,3,3,0,0,1-.28-0.69,1.3,1.3,0,0,1,0-.6l0.12-.94q-0.08-.35-0.14-0.59,0.21-1.41.37-2.26A10.74,10.74,0,0,1,53,14.58a3.31,3.31,0,0,1,.82-1.33,2.83,2.83,0,0,1,1.32-.69,5.83,5.83,0,0,1,.47-0.38A0.67,0.67,0,0,1,56,12a0.51,0.51,0,0,1,.4.25,2,2,0,0,1,.3.72,4.86,4.86,0,0,1,.13.78,5,5,0,0,1,0,.68q-0.08.87-.15,2T56.52,19a5,5,0,0,1-.17.53,1.78,1.78,0,0,0-.14.58,3.39,3.39,0,0,0,.14.75,3.38,3.38,0,0,1,.14.75q0,0.14,0,.52t-0.12,1.44q0.08,0.54.19,1.13,0,0.26-.06.85t-0.06.87a0.61,0.61,0,0,0,0,.25,5.17,5.17,0,0,1,.15.65q0,0.52.09,1.19l0.16,1.59,0.24,2q0.15,1.2.28,2.78l0,0.78a1.21,1.21,0,0,0,.08.39,2.08,2.08,0,0,0,.23.46L58,37.84q0.14,0.73.27,1.51a1,1,0,0,0,.14.4,0.27,0.27,0,0,0,.21.14,5,5,0,0,0,.67-1.06,5.82,5.82,0,0,0,.45-1q0.28-.69.66-1.87a6.55,6.55,0,0,1,.29-0.73l0.44-1a14.62,14.62,0,0,0,.69-1.72q0.44-1.25,1.08-3.29l0.88-2.87q0.36-1.18.51-1.81Zm-33.8-.4q-0.06-.47-0.14-1,0,0.21.06-.33t0.16-1.86a2.43,2.43,0,0,0,.22-0.46L31,19.78a3.94,3.94,0,0,1-.26-0.43A0.7,0.7,0,0,1,30.63,19l0.29-2.73a1.58,1.58,0,0,1,.34-0.8,6.5,6.5,0,0,1,.88-1A7.07,7.07,0,0,1,33,13.8a5.58,5.58,0,0,1,.81-0.49A1.59,1.59,0,0,0,34.45,13a0.27,0.27,0,0,1,.21-0.14,0.52,0.52,0,0,1,.47.38,2.94,2.94,0,0,1,.16,1.13,5.2,5.2,0,0,1-.16,1.1,5.12,5.12,0,0,0-.16,1q0,0.14,0,1.08l0.09,2.7a15.33,15.33,0,0,0,.3,2.7q0.28,1.43.72,3a10.82,10.82,0,0,0,1.29,3,1.92,1.92,0,0,0,1.53,1,3,3,0,0,0,1.74-1,22.23,22.23,0,0,0,2.55-3.1q1.12-1.6,2-3a23.35,23.35,0,0,0,1.42-2.54,9.3,9.3,0,0,1,1.18-1.86,9.89,9.89,0,0,1,1.55-1.51l0.44-.31a0.55,0.55,0,0,1,.27-0.12,0.69,0.69,0,0,1,.54.64A7.07,7.07,0,0,1,50.83,19q-0.12,1.15-.19,2.28Q50.46,23,50.12,25t-0.88,4q-0.27,1-.47,1.81A13.39,13.39,0,0,0,48.5,32q0,0.31-.11.76t-0.15,1.07q-0.19.59-.43,1.18a5.88,5.88,0,0,0-.32,1.13q-0.13.66-.22,1.53,0,0.16,0,.42l0,0.54q-0.45,2.4-.91,4.66a2.8,2.8,0,0,1-.17.54,1.8,1.8,0,0,0-.57.4,4.7,4.7,0,0,0-.67.85,5.77,5.77,0,0,1-.58.69A0.66,0.66,0,0,1,44,46a0.31,0.31,0,0,1-.25-0.12,0.64,0.64,0,0,1-.1-0.4,1.47,1.47,0,0,1,.06-0.31,13.08,13.08,0,0,0,.47-2.31q0.2-1.51.38-3.72,0-.47.31-2.54t0.85-5.75q0.08-.59.2-1.45t0.32-2q0.14-.57.22-1a3.29,3.29,0,0,0,.09-0.6,0.66,0.66,0,0,0-.07-0.34,0.22,0.22,0,0,0-.2-0.11,0.94,0.94,0,0,0-.43.37,10.4,10.4,0,0,0-.77,1.1q-0.27.4-.55,0.85t-0.59.87l-1,1.25-1.43,1.74L41,32l-0.67.49a3.19,3.19,0,0,1-1.17,1.21,2.82,2.82,0,0,1-1.48.51,2.4,2.4,0,0,1-1.56-.62,6.5,6.5,0,0,1-1.44-1.92l-0.61-1.27q-0.3-.64-0.65-1.27l-0.1,0A11.25,11.25,0,0,0,33,31q-0.26,1.77-.67,5.18t-0.68,5.51q-0.23,2-.23,2.59a3.4,3.4,0,0,1-.24,1.24,0.82,0.82,0,0,1-.63.51,4.27,4.27,0,0,0-.6.13L29,46.47a0.46,0.46,0,0,1-.17-0.08,0.21,0.21,0,0,1-.08-0.18l0.12-.87-0.19-.89q0.12-.73.23-1.41,0.08-1.41.14-2.66a8,8,0,0,1,.15-0.87,5,5,0,0,0,.13-0.92,2.92,2.92,0,0,0-.06-0.48,2.92,2.92,0,0,1-.06-0.48,31.6,31.6,0,0,1,.34-3.83,31.66,31.66,0,0,0,.34-3.86q-0.06-.54-0.14-1.08,0.1-.85.31-2.12T30.55,23.77Z" transform="translate(-0.81 -1.05)" fill="#0071ce" fill-rule="evenodd"/></svg>